<svg width="64" height="64" viewBox="0 0 64 64" fill="none" xmlns="http://www.w3.org/2000/svg">
<path d="M64 32C64 49.673 49.673 64 32 64C14.327 64 0 49.673 0 32C0 14.327 14.327 0 32 0C49.673 0 64 14.327 64 32Z" fill="#FFD500" fill-opacity="0.13"/>
<mask id="mask0" mask-type="alpha" maskUnits="userSpaceOnUse" x="3" y="3" width="58" height="58">
<path d="M60.667 32C60.667 47.832 47.833 60.667 32 60.667C16.167 60.667 3.33301 47.832 3.33301 32C3.33301 16.168 16.168 3.33301 32 3.33301C47.832 3.33301 60.667 16.168 60.667 32Z" fill="#C4C4C4"/>
</mask>
<g mask="url(#mask0)">
<path fill-rule="evenodd" clip-rule="evenodd" d="M18.6596 20.6801C23.2256 20.5651 26.7396 24.6471 25.9596 29.1451L24.6096 36.9291C26.8727 36.4911 29.2736 36.2561 31.7556 36.2561C33.5187 36.2561 35.2396 36.3741 36.8986 36.6001L43.7996 26.2871C46.0096 22.9921 50.4696 22.1111 53.7656 24.3201C57.5756 26.8731 58.0476 32.2931 54.7397 35.4681L49.1096 40.8731C53.2397 43.5561 56.1066 47.3751 56.1066 51.9161V55.3961C56.1066 60.1261 52.9767 64.0861 48.6017 66.7611C44.1917 69.4561 38.2276 71.0571 31.7436 71.0571C25.2596 71.0571 19.2956 69.4551 14.8856 66.7611C10.5196 64.0901 7.38965 60.1281 7.38965 55.3971V51.9171C7.38965 48.3811 9.14965 45.2591 11.8546 42.8171L11.5626 28.1121C11.5271 26.1891 12.253 24.33 13.5822 22.9398C14.9113 21.5496 16.736 20.741 18.6586 20.6901L18.6596 20.6801ZM13.8816 43.6801C13.8668 43.5543 13.8581 43.4278 13.8556 43.3011L13.5526 28.0531C13.5271 26.6555 14.0547 25.3044 15.0205 24.294C15.9864 23.2836 17.3123 22.6956 18.7096 22.6581C22.0196 22.5751 24.5656 25.5301 23.9996 28.7941L22.1296 39.5701C22.8146 39.3701 23.5296 39.1901 24.2416 39.0341C26.5896 38.5241 29.1176 38.2341 31.7516 38.2341C33.9196 38.2341 36.0166 38.4241 37.9996 38.7741C38.1094 38.4362 38.2656 38.1151 38.4636 37.8201L45.4596 27.3841C47.0566 25.0011 50.2836 24.3641 52.6666 25.9621C55.4207 27.8081 55.7636 31.7271 53.3706 34.0241L45.8176 41.2741C46.4547 41.5891 47.0636 41.9261 47.6406 42.2811C51.6507 44.7511 54.1256 48.1531 54.1256 51.9071V55.3871C54.1256 62.9371 44.1087 69.0601 31.7516 69.0601C19.3946 69.0601 9.37965 62.9501 9.37965 55.3971V51.9171C9.37965 48.8291 11.0556 45.9791 13.8816 43.6901V43.6801Z" fill="#FFA200" fill-opacity="0.6"/>
<path d="M54.1269 55.397C54.1269 62.947 44.1099 69.07 31.7529 69.07C19.3959 69.07 9.37988 62.95 9.37988 55.397V51.917H54.1269V55.397Z" fill="#FFD500" fill-opacity="0.13"/>
<path fill-rule="evenodd" clip-rule="evenodd" d="M23.9999 28.8047C24.5669 25.5407 22.0199 22.5847 18.7099 22.6687C17.3126 22.7062 15.9866 23.2942 15.0208 24.3046C14.0549 25.3151 13.5273 26.6662 13.5529 28.0637L13.8559 43.3117L13.8819 43.6917C11.0559 45.9817 9.37988 48.8297 9.37988 51.9187C9.37988 59.4687 19.3969 65.5917 31.7539 65.5917C44.1109 65.5917 54.1279 59.4717 54.1279 51.9187C54.1279 47.6237 50.8879 43.7917 45.8199 41.2857L53.3739 34.0357C55.7659 31.7397 55.4239 27.8207 52.6699 25.9737C50.2869 24.3767 47.0599 25.0137 45.4629 27.3957L38.4659 37.8297C38.2677 38.1251 38.1116 38.4465 38.0019 38.7847C36.0189 38.4327 33.9219 38.2447 31.7539 38.2447C28.3089 38.2447 25.0459 38.7207 22.1309 39.5707L23.9999 28.8047Z" fill="#FFD500" fill-opacity="0.13"/>
<path d="M28.5208 50.9224C28.5208 52.9824 27.4078 54.6524 26.0348 54.6524C24.6618 54.6524 23.5488 52.9824 23.5488 50.9224C23.5488 48.8624 24.6618 47.1924 26.0348 47.1924C27.4078 47.1924 28.5208 48.8624 28.5208 50.9224Z" fill="#FFA200" fill-opacity="0.6"/>
<path d="M25.6793 48.0301C26.1863 48.7901 26.5313 49.8971 26.5313 51.1701C26.5313 51.7201 26.9763 52.1641 27.5253 52.1641C28.0743 52.1641 28.5193 51.7191 28.5193 51.1701C28.5193 49.5601 28.0863 48.0561 27.3333 46.9271C26.5853 45.8041 25.4433 44.9551 24.0453 44.9551C22.6473 44.9551 21.5053 45.8051 20.7573 46.9271C20.0043 48.0571 19.5713 49.5601 19.5713 51.1701C19.5713 52.0431 19.6983 52.8801 19.9313 53.6401C20.0913 54.1651 20.6483 54.4601 21.1733 54.3001C21.6983 54.1401 21.9933 53.5831 21.8333 53.0581C21.6603 52.4921 21.5603 51.8531 21.5603 51.1711C21.5603 49.8981 21.9063 48.7911 22.4123 48.0311C22.9223 47.2641 23.5203 46.9451 24.0463 46.9451C24.5723 46.9451 25.1683 47.2651 25.6803 48.0311L25.6793 48.0301Z" fill="#FFA200" fill-opacity="0.6"/>
<path d="M42.8336 48.0301C43.3406 48.7901 43.6856 49.8971 43.6856 51.1701C43.6856 51.7201 44.1306 52.1641 44.6796 52.1641C45.2286 52.1641 45.6736 51.7191 45.6736 51.1701C45.6736 49.5601 45.2406 48.0561 44.4876 46.9271C43.7396 45.8041 42.5976 44.9551 41.1996 44.9551C39.8016 44.9551 38.6596 45.8051 37.9116 46.9271C37.1586 48.0571 36.7256 49.5601 36.7256 51.1701C36.7256 52.0431 36.8526 52.8801 37.0856 53.6401C37.2456 54.1651 37.8026 54.4601 38.3276 54.3001C38.8526 54.1401 39.1476 53.5831 38.9876 53.0581C38.8146 52.4921 38.7146 51.8531 38.7146 51.1711C38.7146 49.8981 39.0606 48.7911 39.5666 48.0311C40.0766 47.2641 40.6746 46.9451 41.2006 46.9451C41.7266 46.9451 42.3226 47.2651 42.8346 48.0311L42.8336 48.0301Z" fill="#FFA200" fill-opacity="0.6"/>
<path d="M45.6741 50.9224C45.6741 52.9824 44.5611 54.6524 43.1881 54.6524C41.8151 54.6524 40.7021 52.9824 40.7021 50.9224C40.7021 48.8624 41.8151 47.1924 43.1881 47.1924C44.5611 47.1924 45.6741 48.8624 45.6741 50.9224Z" fill="#FFA200" fill-opacity="0.6"/>
<path d="M30.2414 23.0639V22.4639C30.2414 21.6199 30.4114 20.9139 30.7474 20.3439C31.1074 19.7739 31.5814 19.2139 32.1714 18.6659C32.6767 18.1747 33.216 17.7199 33.7854 17.3049C34.3134 16.9249 34.7454 16.5249 35.0834 16.1019C35.4212 15.6804 35.6006 15.1539 35.5904 14.6139C35.5904 13.7909 35.2954 13.2109 34.7044 12.8739C34.1344 12.5139 33.1744 12.3359 31.8244 12.3359C30.9373 12.336 30.054 12.453 29.1974 12.6839C28.3324 12.8939 27.5934 13.1689 26.9814 13.5069V9.22987C27.7614 8.84987 28.6814 8.54387 29.7354 8.31187C30.8114 8.07987 31.9834 7.96387 33.2494 7.96387C35.6974 7.96387 37.5654 8.50187 38.8524 9.57787C40.1394 10.6329 40.7824 12.0879 40.7824 13.9459C40.7824 15.1279 40.5394 16.0879 40.0544 16.8259C39.5694 17.5439 38.8624 18.2819 37.9344 19.0419L35.9714 20.7419C35.4434 21.2059 35.1814 21.8389 35.1814 22.6419V23.0539H30.2434L30.2414 23.0639ZM30.0194 28.6669V24.9949H35.3694V28.6669H30.0194Z" fill="#FFA200" fill-opacity="0.6"/>
<path fill-rule="evenodd" clip-rule="evenodd" d="M63.986 32.97L61.986 32.91L62 32L61.986 31.09L63.986 31.03L64 32L63.986 32.97ZM63.871 29.103L61.879 29.283L61.663 27.483L63.641 27.185L63.871 29.103ZM63.294 25.283L61.338 25.701L60.906 23.941L62.833 23.405L63.293 25.283H63.294ZM62.258 21.559L60.368 22.211L59.726 20.518L61.573 19.752L62.259 21.559H62.258ZM60.778 17.989L58.98 18.866L58.137 17.262L59.877 16.278L60.777 17.988L60.778 17.989ZM58.876 14.624L57.198 15.711L56.168 14.221L57.768 13.034L58.868 14.634L58.876 14.624ZM56.583 11.514L55.047 12.794L53.844 11.437L55.3 10.067L56.582 11.514H56.583ZM53.934 8.7L52.564 10.156L51.207 8.953L52.487 7.417L53.934 8.7ZM50.966 6.224L49.779 7.824L48.289 6.794L49.376 5.114L50.976 6.214L50.966 6.224ZM47.723 4.124L46.739 5.864L45.135 5.02L46.012 3.222L47.722 4.122L47.723 4.124ZM44.25 2.428L43.484 4.275L41.791 3.632L42.443 1.742L44.25 2.428ZM40.597 1.168L40.061 3.095L38.301 2.663L38.719 0.707L40.597 1.167V1.168ZM36.816 0.36L36.516 2.338L34.716 2.122L34.896 0.13L36.814 0.36H36.816ZM32.97 0.014L32 0L31.03 0.014L31.09 2.014L32 2L32.91 2.014L32.97 0.014ZM29.102 0.13L29.282 2.122L27.482 2.338L27.184 0.36L29.102 0.13ZM25.282 0.707L25.7 2.663L23.94 3.095L23.404 1.168L25.282 0.708V0.707ZM21.558 1.743L22.21 3.633L20.517 4.276L19.751 2.429L21.558 1.743ZM17.988 3.223L18.865 5.021L17.261 5.865L16.277 4.125L17.987 3.225L17.988 3.223ZM14.623 5.125L15.71 6.805L14.22 7.835L13.033 6.235L14.633 5.135L14.623 5.125ZM11.513 7.418L12.793 8.954L11.436 10.157L10.066 8.701L11.513 7.419V7.418ZM8.7 10.066L10.156 11.436L8.953 12.793L7.417 11.513L8.7 10.066ZM6.224 13.034L7.824 14.221L6.794 15.711L5.114 14.624L6.214 13.024L6.224 13.034ZM4.124 16.277L5.864 17.261L5.02 18.865L3.222 17.988L4.122 16.278L4.124 16.277ZM2.428 19.75L4.275 20.516L3.632 22.209L1.742 21.557L2.428 19.75ZM1.168 23.403L3.095 23.939L2.663 25.699L0.707 25.281L1.167 23.403H1.168ZM0.36 27.183L2.338 27.481L2.122 29.281L0.13 29.101L0.36 27.183ZM0.014 31.03L0 32L0.014 32.97L2.014 32.91L2 32L2.014 31.09L0.014 31.03ZM0.129 34.897L2.121 34.717L2.337 36.517L0.359 36.817L0.129 34.899V34.897ZM0.706 38.717L2.662 38.299L3.094 40.059L1.167 40.595L0.707 38.717H0.706ZM1.742 42.44L3.632 41.788L4.275 43.481L2.428 44.247L1.742 42.44ZM3.222 46.01L5.02 45.133L5.864 46.737L4.124 47.721L3.224 46.011L3.222 46.01ZM5.124 49.375L6.804 48.288L7.834 49.778L6.234 50.965L5.134 49.365L5.124 49.375ZM7.417 52.485L8.953 51.205L10.156 52.562L8.7 53.932L7.418 52.485H7.417ZM10.067 55.299L11.437 53.843L12.794 55.046L11.514 56.582L10.067 55.3V55.299ZM13.035 57.775L14.222 56.175L15.712 57.205L14.625 58.883L13.025 57.783L13.035 57.775ZM16.278 59.875L17.262 58.135L18.866 58.978L17.989 60.776L16.279 59.876L16.278 59.875ZM19.752 61.569L20.518 59.722L22.211 60.364L21.559 62.254L19.752 61.568V61.569ZM23.405 62.829L23.941 60.902L25.701 61.334L25.283 63.29L23.405 62.83V62.829ZM27.185 63.637L27.483 61.659L29.283 61.875L29.103 63.867L27.185 63.637ZM31.032 63.983L31.092 61.983L32 62L32.91 61.986L32.97 63.986L32 64C31.676 64 31.353 63.995 31.03 63.986L31.032 63.983ZM34.899 63.868L34.719 61.876L36.519 61.66L36.819 63.638L34.901 63.868H34.899ZM38.719 63.291L38.301 61.335L40.061 60.903L40.597 62.83L38.719 63.29V63.291ZM42.442 62.255L41.79 60.365L43.483 59.723L44.249 61.57L42.442 62.256V62.255ZM46.012 60.775L45.135 58.977L46.739 58.134L47.723 59.874L46.013 60.774L46.012 60.775ZM49.377 58.873L48.29 57.195L49.78 56.165L50.967 57.765L49.367 58.865L49.377 58.873ZM52.487 56.58L51.207 55.044L52.564 53.841L53.934 55.297L52.487 56.579V56.58ZM55.301 53.93L53.845 52.56L55.048 51.203L56.584 52.483L55.302 53.93H55.301ZM57.777 50.962L56.177 49.775L57.207 48.285L58.885 49.372L57.785 50.972L57.777 50.962ZM59.877 47.719L58.137 46.735L58.98 45.131L60.778 46.008L59.878 47.718L59.877 47.719ZM61.571 44.245L59.724 43.479L60.366 41.786L62.256 42.438L61.57 44.245H61.571ZM62.831 40.592L60.904 40.056L61.336 38.296L63.292 38.714L62.832 40.592H62.831ZM63.639 36.812L61.661 36.512L61.877 34.712L63.869 34.892L63.639 36.81V36.812Z" fill="#FFA200" fill-opacity="0.6"/>
</g>
</svg>
