<?xml version="1.0" standalone="no"?>
<!DOCTYPE svg PUBLIC "-//W3C//DTD SVG 1.0//EN" "http://www.w3.org/TR/2001/REC-SVG-20010904/DTD/svg10.dtd">
<svg xmlns="http://www.w3.org/2000/svg" xmlns:xlink="http://www.w3.org/1999/xlink" id="body_1" width="325" height="90">

<g transform="matrix(0.2 0 0 0.2004454 0 0)">
	<g transform="matrix(1 0 0 1 0 0)">
	</g>
    <path transform="matrix(1 0 0 1 0 0)"  d="M989.585 92.3254C 954.932 86.1917 898.638 95.4502 919.785 177.79C 1004.23 182.009 1002.39 125.2 989.585 92.3254z" stroke="#000000" stroke-width="15" fill="#C4C4C4" fill-rule="nonzero" />
	<g transform="matrix(1 0 0 1 0 0)">
	</g>
    <path transform="matrix(1 0 0 1 0 0)"  d="M957.5519 16.05212L1015.314 63.22766L899.3008 205.2755L841.5386 158.0999L957.5519 16.05212z" stroke="none" fill="#229857" fill-rule="nonzero" />
	<g transform="matrix(1 0 0 1 0 0)">
	</g>
    <path transform="matrix(1 0 0 1 0 0)"  d="M1014.14 62.26556L1071.902 109.441L955.8888 251.4888L898.1267 204.3134L1014.14 62.26556z" stroke="none" fill="#3BB777" fill-rule="nonzero" />
	<g transform="matrix(1 0 0 1 0 0)">
	</g>
    <path transform="matrix(1 0 0 1 0 0)"  d="M17.3441 330L17.3441 187.8L54.8441 187.8L56.3441 201.6C 63.1441 196.4 70.5441 192.3 78.5441 189.3C 86.7441 186.3 95.5441 184.8 104.944 184.8C 114.944 184.8 122.644 186.3 128.044 189.3C 133.644 192.3 137.944 196.6 140.944 202.2C 147.544 197 155.044 192.8 163.444 189.6C 172.044 186.4 182.144 184.8 193.744 184.8C 210.144 184.8 222.244 189.1 230.044 197.7C 237.844 206.1 241.744 219 241.744 236.4L241.744 236.4L241.744 330L201.844 330L201.844 240.9C 201.844 231.5 199.844 224.8 195.844 220.8C 191.844 216.6 185.444 214.5 176.644 214.5C 164.644 214.5 154.644 218.8 146.644 227.4C 147.644 230.8 148.144 234.9 148.144 239.7L148.144 239.7L148.144 330L110.344 330L110.344 240.9C 110.344 232.1 108.844 225.5 105.844 221.1C 102.844 216.7 97.0441 214.5 88.4441 214.5C 82.4441 214.5 76.7441 216.1 71.3441 219.3C 66.1441 222.3 61.4441 225.8 57.2441 229.8L57.2441 229.8L57.2441 330L17.3441 330zM315.169 333C 306.169 333 297.769 331.4 289.969 328.2C 282.369 324.8 276.169 319.9 271.369 313.5C 266.769 306.9 264.469 298.7 264.469 288.9C 264.469 274.9 269.369 263.7 279.169 255.3C 289.169 246.9 303.869 242.7 323.269 242.7L323.269 242.7L365.269 242.7L365.269 238.8C 365.269 230 362.769 223.8 357.769 220.2C 352.969 216.6 343.169 214.8 328.369 214.8C 312.169 214.8 296.569 217.3 281.569 222.3L281.569 222.3L281.569 193.8C 288.169 191.2 296.169 189.1 305.569 187.5C 315.169 185.7 325.569 184.8 336.769 184.8C 358.169 184.8 374.669 189.2 386.269 198C 398.069 206.6 403.969 220.5 403.969 239.7L403.969 239.7L403.969 330L368.869 330L366.769 317.1C 361.169 322.1 354.269 326 346.069 328.8C 337.869 331.6 327.569 333 315.169 333zM326.269 306.3C 335.269 306.3 343.069 304.8 349.669 301.8C 356.269 298.8 361.469 295 365.269 290.4L365.269 290.4L365.269 267.9L324.169 267.9C 308.369 267.9 300.469 274.4 300.469 287.4C 300.469 300 309.069 306.3 326.269 306.3zM436.582 330L436.582 187.8L474.082 187.8L475.582 201.3C 481.382 196.9 488.682 193.1 497.482 189.9C 506.482 186.5 515.882 184.8 525.682 184.8C 544.482 184.8 558.182 189.2 566.782 198C 575.382 206.8 579.682 220.4 579.682 238.8L579.682 238.8L579.682 330L539.182 330L539.182 240.9C 539.182 231.3 537.182 224.5 533.182 220.5C 529.382 216.5 522.182 214.5 511.582 214.5C 505.382 214.5 499.082 215.9 492.682 218.7C 486.482 221.5 481.282 225 477.082 229.2L477.082 229.2L477.082 330L436.582 330zM672.657 382.8C 662.057 382.8 651.157 382.1 639.957 380.7C 628.957 379.3 619.657 377.3 612.057 374.7L612.057 374.7L612.057 344.4C 620.057 347 629.457 349 640.257 350.4C 651.057 352 661.157 352.8 670.557 352.8C 684.357 352.8 694.357 352 700.557 350.4C 706.757 349 709.857 346.4 709.857 342.6C 709.857 339.4 708.457 337.2 705.657 336C 703.057 334.8 697.457 334.2 688.857 334.2L688.857 334.2L650.157 334.2C 624.757 334.2 612.057 324.8 612.057 306C 612.057 300.2 613.657 294.9 616.857 290.1C 620.057 285.3 625.157 281.5 632.157 278.7C 615.957 270.5 607.857 256.7 607.857 237.3C 607.857 218.9 613.557 205.6 624.957 197.4C 636.357 189 653.257 184.8 675.657 184.8C 680.257 184.8 685.257 185.2 690.657 186C 696.257 186.6 700.457 187.2 703.257 187.8L703.257 187.8L756.657 187.8L755.757 213.3L733.257 213.3C 739.457 219.1 742.557 227.2 742.557 237.6C 742.557 252.2 737.957 263.9 728.757 272.7C 719.557 281.3 705.957 285.6 687.957 285.6C 684.757 285.6 681.657 285.5 678.657 285.3C 675.857 284.9 672.957 284.5 669.957 284.1C 663.957 284.9 658.857 286.3 654.657 288.3C 650.657 290.3 648.657 293 648.657 296.4C 648.657 301 652.757 303.3 660.957 303.3L660.957 303.3L701.157 303.3C 715.557 303.3 726.657 306.6 734.457 313.2C 742.257 319.6 746.157 329 746.157 341.4C 746.157 355.4 739.857 365.8 727.257 372.6C 714.657 379.4 696.457 382.8 672.657 382.8zM675.957 262.8C 687.957 262.8 696.257 260.8 700.857 256.8C 705.657 252.6 708.057 245.6 708.057 235.8C 708.057 226 705.657 218.9 700.857 214.5C 696.257 210.1 687.957 207.9 675.957 207.9C 664.557 207.9 656.357 210.1 651.357 214.5C 646.357 218.7 643.857 225.8 643.857 235.8C 643.857 245 646.157 251.8 650.757 256.2C 655.557 260.6 663.957 262.8 675.957 262.8zM849.284 333C 822.684 333 803.184 326.6 790.784 313.8C 778.384 300.8 772.184 282.5 772.184 258.9C 772.184 235.3 778.384 217.1 790.784 204.3C 803.384 191.3 822.884 184.8 849.284 184.8C 875.884 184.8 895.384 191.3 907.784 204.3C 920.384 217.1 926.684 235.3 926.684 258.9C 926.684 282.5 920.484 300.8 908.084 313.8C 895.684 326.6 876.084 333 849.284 333zM849.284 298.5C 862.284 298.5 871.584 295.6 877.184 289.8C 882.784 283.8 885.584 273.5 885.584 258.9C 885.584 244.3 882.784 234.1 877.184 228.3C 871.584 222.3 862.284 219.3 849.284 219.3C 836.484 219.3 827.284 222.3 821.684 228.3C 816.084 234.1 813.284 244.3 813.284 258.9C 813.284 273.5 816.084 283.8 821.684 289.8C 827.284 295.6 836.484 298.5 849.284 298.5z" stroke="none" fill="#FFA200" fill-rule="nonzero" />
	<g transform="matrix(1 0 0 1 0 0)">
	</g>
    <path transform="matrix(1 0 0 1 0 0)"  d="M986.344 333C 976.544 333 967.344 332.3 958.744 330.9C 950.144 329.5 943.144 327.8 937.744 325.8L937.744 325.8L943.744 298.2C 949.944 300.8 956.944 302.8 964.744 304.2C 972.744 305.6 980.444 306.3 987.844 306.3C 999.044 306.3 1007.24 305.3 1012.44 303.3C 1017.64 301.3 1020.94 297.4 1022.34 291.6C 1023.34 287.4 1022.64 284.1 1020.24 281.7C 1017.84 279.3 1013.94 277.1 1008.54 275.1C 1003.14 273.1 996.344 270.7 988.144 267.9C 980.344 265.1 973.644 262.1 968.044 258.9C 962.644 255.5 958.844 251.2 956.644 246C 954.444 240.8 954.144 234 955.744 225.6C 958.544 212.6 965.144 202.6 975.544 195.6C 985.944 188.4 1002.04 184.8 1023.84 184.8C 1032.04 184.8 1039.64 185.4 1046.64 186.6C 1053.84 187.8 1059.94 189.3 1064.94 191.1L1064.94 191.1L1059.24 218.4C 1054.24 216.2 1048.44 214.5 1041.84 213.3C 1035.24 212.1 1029.04 211.5 1023.24 211.5C 1012.84 211.5 1004.84 212.4 999.244 214.2C 993.644 216 990.244 219.6 989.044 225C 987.844 230.6 989.744 234.6 994.744 237C 999.744 239.2 1007.94 242.3 1019.34 246.3C 1029.74 249.7 1037.84 253.3 1043.64 257.1C 1049.44 260.9 1053.24 265.5 1055.04 270.9C 1056.84 276.1 1056.84 282.9 1055.04 291.3C 1052.04 305.3 1045.14 315.8 1034.34 322.8C 1023.74 329.6 1007.74 333 986.344 333zM1097.32 330L1089.82 187.8L1122.52 187.8L1125.22 291.3L1171.42 205.2L1175.02 187.8L1199.92 187.8L1208.92 291.3L1255.42 187.8L1287.82 187.8L1220.62 330L1190.92 330L1180.12 237L1129.72 330L1097.32 330zM1333.77 333C 1320.97 333 1310.17 330.8 1301.37 326.4C 1292.77 321.8 1286.87 314.5 1283.67 304.5C 1280.47 294.3 1280.47 281 1283.67 264.6C 1287.07 248 1292.97 233.8 1301.37 222C 1309.97 210 1320.07 200.8 1331.67 194.4C 1343.47 188 1355.97 184.8 1369.17 184.8C 1377.77 184.8 1385.07 185.8 1391.07 187.8C 1397.07 189.8 1402.67 193.1 1407.87 197.7L1407.87 197.7L1409.97 187.8L1442.67 187.8L1412.67 330L1384.77 330L1385.37 315.9C 1377.77 321.7 1369.87 326 1361.67 328.8C 1353.47 331.6 1344.17 333 1333.77 333zM1347.87 308.4C 1362.47 308.4 1375.67 303.4 1387.47 293.4L1387.47 293.4L1402.47 222.9C 1398.87 218.7 1394.77 215.5 1390.17 213.3C 1385.77 210.9 1379.97 209.7 1372.77 209.7C 1358.37 209.7 1346.37 214.5 1336.77 224.1C 1327.17 233.5 1320.47 247.1 1316.67 264.9C 1314.27 276.1 1313.57 284.9 1314.57 291.3C 1315.77 297.5 1318.97 301.9 1324.17 304.5C 1329.57 307.1 1337.47 308.4 1347.87 308.4zM1438.15 394.8L1481.95 187.8L1510.15 187.8L1508.95 201.9C 1516.55 196.1 1524.45 191.8 1532.65 189C 1540.85 186.2 1550.15 184.8 1560.55 184.8C 1573.35 184.8 1584.05 187.4 1592.65 192.6C 1601.25 197.8 1607.15 205.9 1610.35 216.9C 1613.55 227.7 1613.35 241.7 1609.75 258.9C 1604.35 284.5 1594.95 303.3 1581.55 315.3C 1568.15 327.1 1550.25 333 1527.85 333C 1510.65 333 1496.85 329 1486.45 321L1486.45 321L1470.85 394.8L1438.15 394.8zM1524.85 308.4C 1538.85 308.4 1550.05 304.5 1558.45 296.7C 1566.85 288.9 1572.95 276.2 1576.75 258.6C 1580.35 241.8 1580.25 229.5 1576.45 221.7C 1572.65 213.7 1562.75 209.7 1546.75 209.7C 1531.95 209.7 1518.65 214.7 1506.85 224.7L1506.85 224.7L1491.85 295.8C 1495.45 299.6 1499.85 302.7 1505.05 305.1C 1510.45 307.3 1517.05 308.4 1524.85 308.4z" stroke="none" fill="#000000" fill-rule="nonzero" />
</g>
</svg>